<svg xmlns="http://www.w3.org/2000/svg" width="1200" height="860" viewBox="0 0 1200 860" style="background:#ffffff">
<rect width="1200" height="860" fill="#ffffff"/>
<text x="64" y="72" font-family="'Helvetica Neue', Helvetica, Arial, sans-serif" font-size="11" letter-spacing="3" fill="#111111">REASONIX / CROSS-HARNESS EFFICIENCY</text>
<text x="64" y="96" font-family="'Helvetica Neue', Helvetica, Arial, sans-serif" font-size="30" font-weight="700" fill="#111111">PER-TASK SERIES — 5 HARNESSES</text>
<rect x="64" y="112" width="56" height="4" fill="#ff0000"/>
<text x="64" y="126" font-family="'Helvetica Neue', Helvetica, Arial, sans-serif" font-size="10" letter-spacing="2" fill="#c9c9c9">COST PER TASK — USD</text>
<line x1="64" y1="134" x2="264" y2="134" stroke="#c9c9c9" stroke-width="1"/>
<line x1="94" y1="150.0" x2="1106" y2="150.0" stroke="#111111" stroke-width="1.6"/>
<line x1="94" y1="195.0" x2="1106" y2="195.0" stroke="#c9c9c9" stroke-width="1"/>
<line x1="94" y1="240.0" x2="1106" y2="240.0" stroke="#c9c9c9" stroke-width="1"/>
<line x1="94" y1="285.0" x2="1106" y2="285.0" stroke="#c9c9c9" stroke-width="1"/>
<line x1="94" y1="330.0" x2="1106" y2="330.0" stroke="#c9c9c9" stroke-width="1"/>
<text x="94.0" y="348" text-anchor="middle" font-family="'Helvetica Neue', Helvetica, Arial, sans-serif" font-size="9" fill="#111111">01</text>
<text x="238.6" y="348" text-anchor="middle" font-family="'Helvetica Neue', Helvetica, Arial, sans-serif" font-size="9" fill="#111111">02</text>
<text x="383.1" y="348" text-anchor="middle" font-family="'Helvetica Neue', Helvetica, Arial, sans-serif" font-size="9" fill="#111111">03</text>
<text x="527.7" y="348" text-anchor="middle" font-family="'Helvetica Neue', Helvetica, Arial, sans-serif" font-size="9" fill="#111111">04</text>
<text x="672.3" y="348" text-anchor="middle" font-family="'Helvetica Neue', Helvetica, Arial, sans-serif" font-size="9" fill="#111111">05</text>
<text x="816.9" y="348" text-anchor="middle" font-family="'Helvetica Neue', Helvetica, Arial, sans-serif" font-size="9" fill="#111111">06</text>
<text x="961.4" y="348" text-anchor="middle" font-family="'Helvetica Neue', Helvetica, Arial, sans-serif" font-size="9" fill="#111111">07</text>
<text x="1106.0" y="348" text-anchor="middle" font-family="'Helvetica Neue', Helvetica, Arial, sans-serif" font-size="9" fill="#111111">08</text>
<polyline points="94.0,150.0 238.6,199.4" fill="none" stroke="#111111" stroke-width="2"/>
<polyline points="94.0,274.6 238.6,260.2 383.1,284.1 527.7,285.3 672.3,299.4 816.9,309.6 961.4,225.7 1106.0,306.5" fill="none" stroke="#111111" stroke-width="2"/>
<text x="64" y="366" font-family="'Helvetica Neue', Helvetica, Arial, sans-serif" font-size="10" letter-spacing="2" fill="#c9c9c9">WALL TIME — SECONDS</text>
<line x1="64" y1="374" x2="264" y2="374" stroke="#c9c9c9" stroke-width="1"/>
<line x1="94" y1="390.0" x2="1106" y2="390.0" stroke="#111111" stroke-width="1.6"/>
<line x1="94" y1="435.0" x2="1106" y2="435.0" stroke="#c9c9c9" stroke-width="1"/>
<line x1="94" y1="480.0" x2="1106" y2="480.0" stroke="#c9c9c9" stroke-width="1"/>
<line x1="94" y1="525.0" x2="1106" y2="525.0" stroke="#c9c9c9" stroke-width="1"/>
<line x1="94" y1="570.0" x2="1106" y2="570.0" stroke="#c9c9c9" stroke-width="1"/>
<text x="94.0" y="588" text-anchor="middle" font-family="'Helvetica Neue', Helvetica, Arial, sans-serif" font-size="9" fill="#111111">01</text>
<text x="238.6" y="588" text-anchor="middle" font-family="'Helvetica Neue', Helvetica, Arial, sans-serif" font-size="9" fill="#111111">02</text>
<text x="383.1" y="588" text-anchor="middle" font-family="'Helvetica Neue', Helvetica, Arial, sans-serif" font-size="9" fill="#111111">03</text>
<text x="527.7" y="588" text-anchor="middle" font-family="'Helvetica Neue', Helvetica, Arial, sans-serif" font-size="9" fill="#111111">04</text>
<text x="672.3" y="588" text-anchor="middle" font-family="'Helvetica Neue', Helvetica, Arial, sans-serif" font-size="9" fill="#111111">05</text>
<text x="816.9" y="588" text-anchor="middle" font-family="'Helvetica Neue', Helvetica, Arial, sans-serif" font-size="9" fill="#111111">06</text>
<text x="961.4" y="588" text-anchor="middle" font-family="'Helvetica Neue', Helvetica, Arial, sans-serif" font-size="9" fill="#111111">07</text>
<text x="1106.0" y="588" text-anchor="middle" font-family="'Helvetica Neue', Helvetica, Arial, sans-serif" font-size="9" fill="#111111">08</text>
<polyline points="94.0,510.6 238.6,502.5" fill="none" stroke="#111111" stroke-width="2"/>
<polyline points="94.0,449.4 238.6,390.0 383.1,467.6 527.7,448.7 672.3,469.0 816.9,465.7 961.4,457.9 1106.0,488.4" fill="none" stroke="#111111" stroke-width="2"/>
<text x="64" y="606" font-family="'Helvetica Neue', Helvetica, Arial, sans-serif" font-size="10" letter-spacing="2" fill="#c9c9c9">OUTPUT TOKENS PER TASK</text>
<line x1="64" y1="614" x2="264" y2="614" stroke="#c9c9c9" stroke-width="1"/>
<line x1="94" y1="630.0" x2="1106" y2="630.0" stroke="#111111" stroke-width="1.6"/>
<line x1="94" y1="675.0" x2="1106" y2="675.0" stroke="#c9c9c9" stroke-width="1"/>
<line x1="94" y1="720.0" x2="1106" y2="720.0" stroke="#c9c9c9" stroke-width="1"/>
<line x1="94" y1="765.0" x2="1106" y2="765.0" stroke="#c9c9c9" stroke-width="1"/>
<line x1="94" y1="810.0" x2="1106" y2="810.0" stroke="#c9c9c9" stroke-width="1"/>
<text x="94.0" y="828" text-anchor="middle" font-family="'Helvetica Neue', Helvetica, Arial, sans-serif" font-size="9" fill="#111111">01</text>
<text x="238.6" y="828" text-anchor="middle" font-family="'Helvetica Neue', Helvetica, Arial, sans-serif" font-size="9" fill="#111111">02</text>
<text x="383.1" y="828" text-anchor="middle" font-family="'Helvetica Neue', Helvetica, Arial, sans-serif" font-size="9" fill="#111111">03</text>
<text x="527.7" y="828" text-anchor="middle" font-family="'Helvetica Neue', Helvetica, Arial, sans-serif" font-size="9" fill="#111111">04</text>
<text x="672.3" y="828" text-anchor="middle" font-family="'Helvetica Neue', Helvetica, Arial, sans-serif" font-size="9" fill="#111111">05</text>
<text x="816.9" y="828" text-anchor="middle" font-family="'Helvetica Neue', Helvetica, Arial, sans-serif" font-size="9" fill="#111111">06</text>
<text x="961.4" y="828" text-anchor="middle" font-family="'Helvetica Neue', Helvetica, Arial, sans-serif" font-size="9" fill="#111111">07</text>
<text x="1106.0" y="828" text-anchor="middle" font-family="'Helvetica Neue', Helvetica, Arial, sans-serif" font-size="9" fill="#111111">08</text>
<polyline points="94.0,639.5 238.6,630.0" fill="none" stroke="#111111" stroke-width="2"/>
<polyline points="94.0,703.4 238.6,703.8 383.1,724.6 527.7,667.5 672.3,762.3 816.9,751.4 961.4,729.1 1106.0,756.0" fill="none" stroke="#111111" stroke-width="2"/>
<line x1="64" y1="828" x2="88" y2="828" stroke="#ff0000" stroke-width="2"/>
<text x="94" y="831" font-family="'Helvetica Neue', Helvetica, Arial, sans-serif" font-size="9" fill="#ff0000">fork-reasonix</text>
<line x1="174.8" y1="828" x2="198.8" y2="828" stroke="#111111" stroke-width="2"/>
<text x="204.8" y="831" font-family="'Helvetica Neue', Helvetica, Arial, sans-serif" font-size="9" fill="#111111">upstream-reasonix</text>
<line x1="308.0" y1="828" x2="332.0" y2="828" stroke="#111111" stroke-width="2"/>
<text x="338.0" y="831" font-family="'Helvetica Neue', Helvetica, Arial, sans-serif" font-size="9" fill="#111111">opencode-baseline</text>
<line x1="441.2" y1="828" x2="465.2" y2="828" stroke="#111111" stroke-width="2"/>
<text x="471.2" y="831" font-family="'Helvetica Neue', Helvetica, Arial, sans-serif" font-size="9" fill="#111111">hermes-agent</text>
<line x1="546.4" y1="828" x2="570.4" y2="828" stroke="#111111" stroke-width="2"/>
<text x="576.4" y="831" font-family="'Helvetica Neue', Helvetica, Arial, sans-serif" font-size="9" fill="#111111">prime-agent</text>
</svg>